<svg class="ldi-i8zyoe" width="100%" height="100%" xmlns="http://www.w3.org/2000/svg" xmlns:xlink="http://www.w3.org/1999/xlink" viewBox="0 0 100 100" preserveAspectRatio="xMidYMid" style="background: rgba(0, 0, 0, 0) none repeat scroll 0% 0%;"><!--?xml version="1.0" encoding="utf-8"?--><!--Generator: Adobe Illustrator 21.0.0, SVG Export Plug-In . SVG Version: 6.00 Build 0)--><svg version="1.1" id="圖層_1" xmlns="http://www.w3.org/2000/svg" xmlns:xlink="http://www.w3.org/1999/xlink" x="0px" y="0px" viewBox="0 0 100 100" style="transform-origin: 50px 50px 0px;" xml:space="preserve"><g style="transform-origin: 50px 50px 0px;"><g style="transform-origin: 50px 50px 0px; transform: scale(0.6);"><g style="transform-origin: 50px 50px 0px;"><g><style type="text/css" style="transform-origin: 50px 50px 0px; animation-duration: 1.4s; animation-delay: -1.4s; animation-direction: normal;" class="ld ld-breath">.st0{fill-rule:evenodd;clip-rule:evenodd;fill:#FFDC6C;} .st1{fill:none;stroke:#F8B26A;stroke-width:2.6883;stroke-linecap:round;stroke-miterlimit:10;} .st2{fill:#353035;} .st3{fill:#FFDC6C;} .st4{fill-rule:evenodd;clip-rule:evenodd;fill:#E15B64;} .st5{fill:#F8B26A;} .st6{fill-rule:evenodd;clip-rule:evenodd;fill:#A0C8D7;} .st7{fill-rule:evenodd;clip-rule:evenodd;fill:#B5B5B5;} .st8{fill:#A0C8D7;} .st9{fill-rule:evenodd;clip-rule:evenodd;fill:#F8B26A;} .st10{fill-rule:evenodd;clip-rule:evenodd;fill:#E0E0E0;stroke:#000000;stroke-width:3.8366;stroke-linecap:round;stroke-miterlimit:10;} .st11{fill-rule:evenodd;clip-rule:evenodd;fill:#FFDC6C;stroke:#F47E60;stroke-width:4;stroke-miterlimit:10;} .st12{fill-rule:evenodd;clip-rule:evenodd;fill:#E0E0E0;stroke:#000000;stroke-width:5;stroke-linecap:round;stroke-miterlimit:10;} .st13{fill:#B5B5B5;} .st14{fill-rule:evenodd;clip-rule:evenodd;fill:#E0E0E0;} .st15{fill-rule:evenodd;clip-rule:evenodd;fill:#E0E0E0;stroke:#000000;stroke-width:6.8207;stroke-linecap:round;stroke-miterlimit:10;} .st16{fill:#E0E0E0;} .st17{fill:#E0E0E0;stroke:#FFFFFF;stroke-width:3;stroke-miterlimit:10;} .st18{fill:#77A4BD;} .st19{fill-rule:evenodd;clip-rule:evenodd;fill:#E0E0E0;stroke:#000000;stroke-width:4;stroke-linecap:round;stroke-miterlimit:10;} .st20{fill:#F8B26A;stroke:#000000;stroke-width:3;stroke-miterlimit:10;} .st21{fill:none;stroke:#F8B26A;stroke-width:4.5884;stroke-linecap:round;stroke-miterlimit:10;} .st22{fill:#333333;} .st23{fill:#666666;} .st24{fill:#F47E60;} .st25{fill:#E15B64;} .st26{fill:#C33737;} .st27{fill:none;stroke:#77A4BD;stroke-width:4;stroke-linecap:round;stroke-miterlimit:10;} .st28{fill:none;stroke:#A0C8D7;stroke-width:4;stroke-linecap:round;stroke-miterlimit:10;} .st29{fill:none;stroke:#77A4BD;stroke-width:3.5;stroke-linecap:round;stroke-miterlimit:10;} .st30{fill:none;stroke:#A0C8D7;stroke-width:3.5;stroke-linecap:round;stroke-miterlimit:10;} .st31{fill-rule:evenodd;clip-rule:evenodd;fill:#F5E6C8;} .st32{fill:#E6E6E6;} .st33{fill:none;} .st34{fill:#849B87;} .st35{fill:none;stroke:#C33737;stroke-width:3;stroke-linecap:round;stroke-miterlimit:10;} .st36{fill:#F5E6C8;} .st37{fill:none;stroke:#F8B26A;stroke-width:1.8792;stroke-linecap:round;stroke-miterlimit:10;} .st38{fill:#998675;} .st39{fill:#736357;} .st40{fill-rule:evenodd;clip-rule:evenodd;fill:#80AAF3;} .st41{fill:none;stroke:#A0C8D7;stroke-width:3;stroke-linecap:round;stroke-miterlimit:10;} .st42{fill:none;stroke:#77A4BD;stroke-width:3;stroke-linecap:round;stroke-miterlimit:10;} .st43{fill:none;stroke:#F5E169;stroke-width:4.588;stroke-linecap:round;stroke-miterlimit:10;} .st44{fill:none;stroke:#F8B26A;stroke-width:4.588;stroke-linecap:round;stroke-miterlimit:10;} .st45{fill:none;stroke:#F47E60;stroke-width:4.588;stroke-linecap:round;stroke-miterlimit:10;} .st46{fill:none;stroke:#E15B64;stroke-width:4.588;stroke-linecap:round;stroke-miterlimit:10;} .st47{fill:none;stroke:#E15B64;stroke-width:8;stroke-miterlimit:10;} .st48{fill:none;stroke:#F8B26A;stroke-width:8;stroke-miterlimit:10;} .st49{fill:none;stroke:#ABBD81;stroke-width:8;stroke-miterlimit:10;} .st50{fill:none;stroke:#E15B64;stroke-width:4;stroke-miterlimit:10;} .st51{fill:none;stroke:#F8B26A;stroke-width:4;stroke-miterlimit:10;} .st52{fill:none;stroke:#F5E6C8;stroke-width:4;stroke-miterlimit:10;} .st53{fill:none;stroke:#ABBD81;stroke-width:4;stroke-miterlimit:10;} .st54{fill:none;stroke:#A0C8D7;stroke-width:4;stroke-miterlimit:10;} .st55{fill:none;stroke:#B295E3;stroke-width:4;stroke-miterlimit:10;}</style><g style="transform-origin: 50px 50px 0px;"><g><g style="transform-origin: 50px 50px 0px; animation-duration: 1.4s; animation-delay: -1.37143s; animation-direction: normal;" class="ld ld-breath"><circle class="st0" cx="40.4" cy="28.4" r="12.5" fill="rgb(255, 220, 108)" style="fill: rgb(255, 220, 108);"></circle></g><g style="transform-origin: 50px 50px 0px;"><g><g style="transform-origin: 50px 50px 0px; animation-duration: 1.4s; animation-delay: -1.34286s; animation-direction: normal;" class="ld ld-breath"><line class="st1" x1="40.4" y1="5" x2="40.4" y2="11.9" stroke="rgb(248, 178, 106)" style="stroke: rgb(248, 178, 106);"></line></g><g style="transform-origin: 50px 50px 0px; animation-duration: 1.4s; animation-delay: -1.31429s; animation-direction: normal;" class="ld ld-breath"><line class="st1" x1="28.7" y1="8.1" x2="32.2" y2="14.1" stroke="rgb(248, 178, 106)" style="stroke: rgb(248, 178, 106);"></line></g><g style="transform-origin: 50px 50px 0px; animation-duration: 1.4s; animation-delay: -1.28571s; animation-direction: normal;" class="ld ld-breath"><line class="st1" x1="20.1" y1="16.7" x2="26.1" y2="20.2" stroke="rgb(248, 178, 106)" style="stroke: rgb(248, 178, 106);"></line></g><g style="transform-origin: 50px 50px 0px; animation-duration: 1.4s; animation-delay: -1.25714s; animation-direction: normal;" class="ld ld-breath"><line class="st1" x1="17" y1="28.4" x2="23.9" y2="28.4" stroke="rgb(248, 178, 106)" style="stroke: rgb(248, 178, 106);"></line></g><g style="transform-origin: 50px 50px 0px; animation-duration: 1.4s; animation-delay: -1.22857s; animation-direction: normal;" class="ld ld-breath"><line class="st1" x1="20.1" y1="40.2" x2="26.1" y2="36.7" stroke="rgb(248, 178, 106)" style="stroke: rgb(248, 178, 106);"></line></g><g style="transform-origin: 50px 50px 0px; animation-duration: 1.4s; animation-delay: -1.2s; animation-direction: normal;" class="ld ld-breath"><line class="st1" x1="28.7" y1="48.7" x2="32.2" y2="42.7" stroke="rgb(248, 178, 106)" style="stroke: rgb(248, 178, 106);"></line></g><g style="transform-origin: 50px 50px 0px; animation-duration: 1.4s; animation-delay: -1.17143s; animation-direction: normal;" class="ld ld-breath"><line class="st1" x1="40.4" y1="51.9" x2="40.4" y2="45" stroke="rgb(248, 178, 106)" style="stroke: rgb(248, 178, 106);"></line></g><g style="transform-origin: 50px 50px 0px; animation-duration: 1.4s; animation-delay: -1.14286s; animation-direction: normal;" class="ld ld-breath"><line class="st1" x1="52.2" y1="48.7" x2="48.7" y2="42.7" stroke="rgb(248, 178, 106)" style="stroke: rgb(248, 178, 106);"></line></g><g style="transform-origin: 50px 50px 0px; animation-duration: 1.4s; animation-delay: -1.11429s; animation-direction: normal;" class="ld ld-breath"><line class="st1" x1="60.7" y1="40.2" x2="54.7" y2="36.7" stroke="rgb(248, 178, 106)" style="stroke: rgb(248, 178, 106);"></line></g><g style="transform-origin: 50px 50px 0px; animation-duration: 1.4s; animation-delay: -1.08571s; animation-direction: normal;" class="ld ld-breath"><line class="st1" x1="63.9" y1="28.4" x2="57" y2="28.4" stroke="rgb(248, 178, 106)" style="stroke: rgb(248, 178, 106);"></line></g><g style="transform-origin: 50px 50px 0px; animation-duration: 1.4s; animation-delay: -1.05714s; animation-direction: normal;" class="ld ld-breath"><line class="st1" x1="60.7" y1="16.7" x2="54.7" y2="20.2" stroke="rgb(248, 178, 106)" style="stroke: rgb(248, 178, 106);"></line></g><g style="transform-origin: 50px 50px 0px; animation-duration: 1.4s; animation-delay: -1.02857s; animation-direction: normal;" class="ld ld-breath"><line class="st1" x1="52.2" y1="8.1" x2="48.7" y2="14.1" stroke="rgb(248, 178, 106)" style="stroke: rgb(248, 178, 106);"></line></g></g></g></g></g><g style="transform-origin: 50px 50px 0px; animation-duration: 1.4s; animation-delay: -1s; animation-direction: normal;" class="ld ld-breath"><path class="st7" d="M74.4,46.9c0.4-1.4,0.7-2.9,0.7-4.4c0-8.1-6.6-14.7-14.7-14.7c-5.6,0-10.5,3.2-13,7.8c-0.9-0.3-1.9-0.5-2.9-0.5 c-5.4,0-9.8,4.4-9.8,9.8c0,0.7,0.1,1.3,0.2,2c-5,0.8-8.8,5.1-8.8,10.3c0,5.7,4.7,10.4,10.4,10.4h36.1c5.7,0,10.4-4.7,10.4-10.4 C83,52,79.3,47.7,74.4,46.9z" fill="rgb(181, 181, 181)" style="fill: rgb(181, 181, 181);"></path></g><g style="transform-origin: 50px 50px 0px;"><g><g style="transform-origin: 50px 50px 0px;"><g><g style="transform-origin: 50px 50px 0px; animation-duration: 1.4s; animation-delay: -0.971429s; animation-direction: normal;" class="ld ld-breath"><path class="st18" d="M36.4,75.5l1.2-3.2c0.3-0.8-0.1-1.8-0.9-2.1c-0.8-0.3-1.8,0.1-2.1,0.9l-1.2,3.2c-0.3,0.8,0.1,1.8,0.9,2.1 c0.2,0.1,0.4,0.1,0.6,0.1C35.5,76.5,36.1,76.1,36.4,75.5z" fill="rgb(119, 164, 189)" style="fill: rgb(119, 164, 189);"></path></g></g></g><g style="transform-origin: 50px 50px 0px;"><g><g style="transform-origin: 50px 50px 0px; animation-duration: 1.4s; animation-delay: -0.942857s; animation-direction: normal;" class="ld ld-breath"><path class="st18" d="M42.6,80.6l3.2-8.4c0.3-0.8-0.1-1.8-0.9-2.1c-0.8-0.3-1.8,0.1-2.1,0.9l-3.2,8.4c-0.3,0.8,0.1,1.8,0.9,2.1 c0.2,0.1,0.4,0.1,0.6,0.1C41.7,81.6,42.4,81.2,42.6,80.6z" fill="rgb(119, 164, 189)" style="fill: rgb(119, 164, 189);"></path></g></g></g><g style="transform-origin: 50px 50px 0px;"><g><g style="transform-origin: 50px 50px 0px; animation-duration: 1.4s; animation-delay: -0.914286s; animation-direction: normal;" class="ld ld-breath"><path class="st18" d="M48.8,85.7l5.1-13.5c0.3-0.8-0.1-1.8-0.9-2.1c-0.8-0.3-1.8,0.1-2.1,0.9l-5.1,13.5c-0.3,0.8,0.1,1.8,0.9,2.1 c0.2,0.1,0.4,0.1,0.6,0.1C48,86.8,48.6,86.4,48.8,85.7z" fill="rgb(119, 164, 189)" style="fill: rgb(119, 164, 189);"></path></g></g></g><g style="transform-origin: 50px 50px 0px;"><g><g style="transform-origin: 50px 50px 0px; animation-duration: 1.4s; animation-delay: -0.885714s; animation-direction: normal;" class="ld ld-breath"><path class="st18" d="M60.5,76.5l1.6-4.1c0.3-0.8-0.1-1.8-0.9-2.1c-0.8-0.3-1.8,0.1-2.1,0.9l-1.6,4.1c-0.3,0.8,0.1,1.8,0.9,2.1 c0.2,0.1,0.4,0.1,0.6,0.1C59.6,77.5,60.2,77.1,60.5,76.5z" fill="rgb(119, 164, 189)" style="fill: rgb(119, 164, 189);"></path></g></g></g><g style="transform-origin: 50px 50px 0px;"><g><g style="transform-origin: 50px 50px 0px; animation-duration: 1.4s; animation-delay: -0.857143s; animation-direction: normal;" class="ld ld-breath"><path class="st18" d="M64.5,87.4L70,72.2c0.3-0.8-0.1-1.8-1-2.1c-0.8-0.3-1.8,0.1-2.1,1l-5.5,15.2c-0.3,0.8,0.1,1.8,1,2.1 c0.2,0.1,0.4,0.1,0.5,0.1C63.7,88.5,64.3,88.1,64.5,87.4z" fill="rgb(119, 164, 189)" style="fill: rgb(119, 164, 189);"></path></g></g></g><g style="transform-origin: 50px 50px 0px;"><g><g style="transform-origin: 50px 50px 0px; animation-duration: 1.4s; animation-delay: -0.828571s; animation-direction: normal;" class="ld ld-breath"><path class="st18" d="M73,82.7l3.2-9.8c0.3-0.8-0.2-1.8-1-2c-0.8-0.3-1.8,0.2-2,1l-3.2,9.8c-0.3,0.8,0.2,1.8,1,2 c0.2,0.1,0.3,0.1,0.5,0.1C72.1,83.8,72.7,83.4,73,82.7z" fill="rgb(119, 164, 189)" style="fill: rgb(119, 164, 189);"></path></g></g></g><g style="transform-origin: 50px 50px 0px;"><g><g style="transform-origin: 50px 50px 0px; animation-duration: 1.4s; animation-delay: -0.8s; animation-direction: normal;" class="ld ld-breath"><path class="st18" d="M29.5,94L34.3,81c0.3-0.8-0.1-1.8-0.9-2.1c-0.8-0.3-1.8,0.1-2.1,0.9l-4.8,12.9c-0.3,0.8,0.1,1.8,0.9,2.1 c0.2,0.1,0.4,0.1,0.6,0.1C28.6,95,29.2,94.6,29.5,94z" fill="rgb(119, 164, 189)" style="fill: rgb(119, 164, 189);"></path></g></g></g><g style="transform-origin: 50px 50px 0px;"><g><g style="transform-origin: 50px 50px 0px; animation-duration: 1.4s; animation-delay: -0.771429s; animation-direction: normal;" class="ld ld-breath"><path class="st18" d="M37.5,94l2.8-7.4c0.3-0.8-0.1-1.8-0.9-2.1c-0.8-0.3-1.8,0.1-2.1,0.9l-2.8,7.4c-0.3,0.8,0.1,1.8,0.9,2.1 C35.6,95,35.8,95,36,95C36.6,95,37.3,94.6,37.5,94z" fill="rgb(119, 164, 189)" style="fill: rgb(119, 164, 189);"></path></g></g></g><g style="transform-origin: 50px 50px 0px;"><g><g style="transform-origin: 50px 50px 0px; animation-duration: 1.4s; animation-delay: -0.742857s; animation-direction: normal;" class="ld ld-breath"><path class="st18" d="M45.7,94l0.8-2c0.3-0.8-0.1-1.8-0.9-2.1c-0.8-0.3-1.8,0.1-2.1,0.9l-0.8,2c-0.3,0.8,0.1,1.8,0.9,2.1 C43.8,95,44,95,44.2,95C44.8,95,45.5,94.6,45.7,94z" fill="rgb(119, 164, 189)" style="fill: rgb(119, 164, 189);"></path></g></g></g><g style="transform-origin: 50px 50px 0px;"><g><g style="transform-origin: 50px 50px 0px; animation-duration: 1.4s; animation-delay: -0.714286s; animation-direction: normal;" class="ld ld-breath"><path class="st18" d="M53.7,94l4.4-11.4c0.3-0.8-0.1-1.8-0.9-2.1c-0.8-0.3-1.8,0.1-2.1,0.9l-4.4,11.4c-0.3,0.8,0.1,1.8,0.9,2.1 C51.9,95,52,95,52.2,95C52.9,95,53.5,94.6,53.7,94z" fill="rgb(119, 164, 189)" style="fill: rgb(119, 164, 189);"></path></g></g></g><g style="transform-origin: 50px 50px 0px;"><g><g style="transform-origin: 50px 50px 0px; animation-duration: 1.4s; animation-delay: -0.685714s; animation-direction: normal;" class="ld ld-breath"><path class="st18" d="M70.2,94l2.2-5.7c0.3-0.8-0.1-1.8-0.9-2.1c-0.8-0.3-1.8,0.1-2.1,0.9l-2.2,5.7c-0.3,0.8,0.1,1.8,0.9,2.1 c0.2,0.1,0.4,0.1,0.6,0.1C69.4,95,70,94.6,70.2,94z" fill="rgb(119, 164, 189)" style="fill: rgb(119, 164, 189);"></path></g></g></g></g></g><metadata xmlns:d="https://loading.io/stock/" style="transform-origin: 50px 50px 0px; animation-duration: 1.4s; animation-delay: -0.657143s; animation-direction: normal;" class="ld ld-breath">
<d:name style="transform-origin: 50px 50px 0px; animation-duration: 1.4s; animation-delay: -0.628571s; animation-direction: normal;" class="ld ld-breath">sunny</d:name>
<d:tags style="transform-origin: 50px 50px 0px; animation-duration: 1.4s; animation-delay: -0.6s; animation-direction: normal;" class="ld ld-breath">cloudy,rain,sun,storm,sunny,weather</d:tags>
<d:license style="transform-origin: 50px 50px 0px; animation-duration: 1.4s; animation-delay: -0.571429s; animation-direction: normal;" class="ld ld-breath">rf</d:license>
<d:slug style="transform-origin: 50px 50px 0px; animation-duration: 1.4s; animation-delay: -0.542857s; animation-direction: normal;" class="ld ld-breath">i8zyoe</d:slug>
</metadata></g></g></g></g><style type="text/css" style="transform-origin: 50px 50px 0px; animation-duration: 1.4s; animation-delay: -0.514286s; animation-direction: normal;" class="ld ld-breath">path,ellipse,circle,rect,polygon,polyline,line { stroke-width: 0; }@keyframes ld-breath {
  0% {
    -webkit-transform: scale(0.86);
    transform: scale(0.86);
  }
  50% {
    -webkit-transform: scale(1.06);
    transform: scale(1.06);
  }
  100% {
    -webkit-transform: scale(0.86);
    transform: scale(0.86);
  }
}
@-webkit-keyframes ld-breath {
  0% {
    -webkit-transform: scale(0.86);
    transform: scale(0.86);
  }
  50% {
    -webkit-transform: scale(1.06);
    transform: scale(1.06);
  }
  100% {
    -webkit-transform: scale(0.86);
    transform: scale(0.86);
  }
}
.ld.ld-breath {
  -webkit-animation: ld-breath 1s infinite;
  animation: ld-breath 1s infinite;
}
</style></svg></svg>